<svg xmlns="http://www.w3.org/2000/svg" width="1157" height="720" viewBox="0 0 1157 720" font-family="Helvetica,Arial,sans-serif">
<defs>
<marker id="seta" viewBox="0 0 10 10" refX="9" refY="5" markerWidth="9" markerHeight="9" orient="auto-start-reverse">
<path d="M0,1 L9,5 L0,9" fill="none" stroke="#37474F" stroke-width="1.3"/></marker>
<marker id="triangulo" viewBox="0 0 12 12" refX="11" refY="6" markerWidth="13" markerHeight="13" orient="auto-start-reverse">
<path d="M1,1 L11,6 L1,11 z" fill="#ffffff" stroke="#37474F" stroke-width="1.3"/></marker>
<marker id="losango" viewBox="0 0 12 12" refX="11" refY="6" markerWidth="12" markerHeight="12" orient="auto-start-reverse">
<path d="M6,1 L11,6 L6,11 L1,6 z" fill="#ffffff" stroke="#37474F" stroke-width="1.3"/></marker>
</defs>
<rect width="100%" height="100%" fill="#ffffff"/>
<text x="24" y="24" font-size="15" font-weight="600" fill="#1a202c">factory-method (template)</text>
<path d="M 281,63 L 796,85" fill="none" stroke="#37474F" stroke-width="1.3" marker-end="url(#triangulo)"/>
<path d="M 281,63 C 307,63 307,375 259,375" fill="none" stroke="#90a4ae" stroke-width="1.3" stroke-dasharray="5,4" marker-end="url(#seta)"/>
<path d="M 667,63 L 796,85" fill="none" stroke="#37474F" stroke-width="1.3" marker-end="url(#triangulo)"/>
<path d="M 410,63 L 259,479" fill="none" stroke="#90a4ae" stroke-width="1.3" stroke-dasharray="5,4" marker-end="url(#seta)"/>
<path d="M 340,167 L 410,63" fill="none" stroke="#37474F" stroke-width="1.3" marker-end="url(#triangulo)"/>
<path d="M 259,375 L 410,197" fill="none" stroke="#37474F" stroke-width="1.3" marker-end="url(#triangulo)"/>
<path d="M 259,479 L 410,197" fill="none" stroke="#37474F" stroke-width="1.3" marker-end="url(#triangulo)"/>
<path d="M 310,591 C 336,591 336,63 281,63" fill="none" stroke="#90a4ae" stroke-width="1.3" stroke-dasharray="5,4" marker-end="url(#seta)"/>
<path d="M 310,591 L 410,63" fill="none" stroke="#90a4ae" stroke-width="1.3" stroke-dasharray="5,4" marker-end="url(#seta)"/>
<path d="M 310,591 C 366,591 366,167 340,167" fill="none" stroke="#90a4ae" stroke-width="1.3" stroke-dasharray="5,4" marker-end="url(#seta)"/>
<g><rect x="24" y="34" width="257" height="59" rx="6" ry="6" fill="#f7f8fa" stroke="#37474F" stroke-width="1.3"/><path d="M 24,64 L 281,64" stroke="#37474F" stroke-width="1"/>
<text x="152" y="54" font-size="13" font-weight="600" fill="#1a202c" text-anchor="middle">Criador1</text>
<text x="34" y="79" font-size="11" font-family="DejaVu Sans Mono,Consolas,monospace" fill="#263238">+ criarProduto() : ProdutoAbstrato</text>
</g>
<g><rect x="410" y="34" width="257" height="59" rx="6" ry="6" fill="#f7f8fa" stroke="#37474F" stroke-width="1.3"/><path d="M 410,64 L 667,64" stroke="#37474F" stroke-width="1"/>
<text x="538" y="54" font-size="13" font-weight="600" fill="#1a202c" text-anchor="middle">Criador2</text>
<text x="420" y="79" font-size="11" font-family="DejaVu Sans Mono,Consolas,monospace" fill="#263238">+ criarProduto() : ProdutoAbstrato</text>
</g>
<g><rect x="24" y="138" width="316" height="59" rx="6" ry="6" fill="#f7f8fa" stroke="#37474F" stroke-width="1.3"/><path d="M 24,168 L 340,168" stroke="#37474F" stroke-width="1"/>
<text x="182" y="158" font-size="13" font-weight="600" fill="#1a202c" text-anchor="middle">Criador2Ajustado</text>
<text x="34" y="183" font-size="11" font-family="DejaVu Sans Mono,Consolas,monospace" fill="#263238">+ preparar(ProdutoAbstrato produto) : void</text>
</g>
<g><rect x="796" y="34" width="337" height="103" rx="6" ry="6" fill="#eef1f5" stroke="#37474F" stroke-width="1.3"/><path d="M 796,78 L 1133,78" stroke="#37474F" stroke-width="1"/>
<text x="964" y="49" font-size="10" fill="#546e7a" text-anchor="middle" font-style="italic">«abstract»</text>
<text x="964" y="68" font-size="13" font-weight="600" fill="#1a202c" text-anchor="middle">CriadorAbstrato</text>
<text x="806" y="93" font-size="11" font-family="DejaVu Sans Mono,Consolas,monospace" fill="#263238">+ criar() : ProdutoAbstrato</text>
<text x="806" y="108" font-size="11" font-family="DejaVu Sans Mono,Consolas,monospace" fill="#263238">+ criarProduto() : ProdutoAbstrato {abstract}</text>
<text x="806" y="123" font-size="11" font-family="DejaVu Sans Mono,Consolas,monospace" fill="#263238">+ preparar(ProdutoAbstrato produto) : void</text>
</g>
<g><rect x="24" y="242" width="213" height="59" rx="6" ry="6" fill="#f7f8fa" stroke="#37474F" stroke-width="1.3"/><path d="M 24,272 L 237,272" stroke="#37474F" stroke-width="1"/>
<text x="130" y="262" font-size="13" font-weight="600" fill="#1a202c" text-anchor="middle">Main</text>
<text x="34" y="287" font-size="11" font-family="DejaVu Sans Mono,Consolas,monospace" fill="#263238">+ main(String[] args) : void</text>
</g>
<g><rect x="24" y="346" width="235" height="59" rx="6" ry="6" fill="#f7f8fa" stroke="#37474F" stroke-width="1.3"/><path d="M 24,376 L 259,376" stroke="#37474F" stroke-width="1"/>
<text x="142" y="366" font-size="13" font-weight="600" fill="#1a202c" text-anchor="middle">Produto1</text>
<text x="34" y="391" font-size="11" font-family="DejaVu Sans Mono,Consolas,monospace" fill="#263238">+ descricaoAdicional() : String</text>
</g>
<g><rect x="24" y="450" width="235" height="59" rx="6" ry="6" fill="#f7f8fa" stroke="#37474F" stroke-width="1.3"/><path d="M 24,480 L 259,480" stroke="#37474F" stroke-width="1"/>
<text x="142" y="470" font-size="13" font-weight="600" fill="#1a202c" text-anchor="middle">Produto2</text>
<text x="34" y="495" font-size="11" font-family="DejaVu Sans Mono,Consolas,monospace" fill="#263238">+ descricaoAdicional() : String</text>
</g>
<g><rect x="410" y="138" width="316" height="118" rx="6" ry="6" fill="#eef1f5" stroke="#37474F" stroke-width="1.3"/><path d="M 410,182 L 726,182" stroke="#37474F" stroke-width="1"/>
<text x="568" y="153" font-size="10" fill="#546e7a" text-anchor="middle" font-style="italic">«abstract»</text>
<text x="568" y="172" font-size="13" font-weight="600" fill="#1a202c" text-anchor="middle">ProdutoAbstrato</text>
<text x="420" y="197" font-size="11" font-family="DejaVu Sans Mono,Consolas,monospace" fill="#263238">- preco : double</text>
<text x="420" y="212" font-size="11" font-family="DejaVu Sans Mono,Consolas,monospace" fill="#263238">+ descricaoAdicional() : String {abstract}</text>
<text x="420" y="227" font-size="11" font-family="DejaVu Sans Mono,Consolas,monospace" fill="#263238">+ ajustarPreco(double fator) : void</text>
<text x="420" y="242" font-size="11" font-family="DejaVu Sans Mono,Consolas,monospace" fill="#263238">+ descrever() : String</text>
</g>
<g><rect x="24" y="554" width="286" height="74" rx="6" ry="6" fill="#f7f8fa" stroke="#37474F" stroke-width="1.3"/><path d="M 24,584 L 310,584" stroke="#37474F" stroke-width="1"/>
<text x="167" y="574" font-size="13" font-weight="600" fill="#1a202c" text-anchor="middle">SeletorDeCriadores</text>
<text x="34" y="599" font-size="11" font-family="DejaVu Sans Mono,Consolas,monospace" fill="#263238">+ para(String chave) : CriadorAbstrato</text>
<text x="34" y="614" font-size="11" font-family="DejaVu Sans Mono,Consolas,monospace" fill="#263238">+ chaves() : Iterable</text>
</g>
<text x="24" y="652" font-size="11" fill="#607d8b">heranca / realizacao : classe, interface</text>
<text x="24" y="670" font-size="11" fill="#607d8b">associacao / composicao : campo, com multiplicidade</text>
<text x="24" y="688" font-size="11" fill="#607d8b">dependencia / instancia : tracejado, seta aberta</text>
</svg>